<svg width="16" height="12" viewBox="0 0 16 12" fill="none" xmlns="http://www.w3.org/2000/svg">
<path d="M15.9968 6C15.9968 6.17681 15.9266 6.34638 15.8016 6.47141C15.6765 6.59643 15.507 6.66667 15.3302 6.66667H0.663493C0.486682 6.66667 0.317113 6.59643 0.192088 6.47141C0.0670642 6.34638 -0.00317383 6.17681 -0.00317383 6C-0.00317383 5.82319 0.0670642 5.65362 0.192088 5.5286C0.317113 5.40357 0.486682 5.33333 0.663493 5.33333H15.3302C15.507 5.33333 15.6765 5.40357 15.8016 5.5286C15.9266 5.65362 15.9968 5.82319 15.9968 6ZM0.663493 1.33333H15.3302C15.507 1.33333 15.6765 1.2631 15.8016 1.13807C15.9266 1.01305 15.9968 0.843478 15.9968 0.666667C15.9968 0.489856 15.9266 0.320287 15.8016 0.195262C15.6765 0.070238 15.507 0 15.3302 0H0.663493C0.486682 0 0.317113 0.070238 0.192088 0.195262C0.0670642 0.320287 -0.00317383 0.489856 -0.00317383 0.666667C-0.00317383 0.843478 0.0670642 1.01305 0.192088 1.13807C0.317113 1.2631 0.486682 1.33333 0.663493 1.33333ZM15.3302 10.6667H0.663493C0.486682 10.6667 0.317113 10.7369 0.192088 10.8619C0.0670642 10.987 -0.00317383 11.1565 -0.00317383 11.3333C-0.00317383 11.5101 0.0670642 11.6797 0.192088 11.8047C0.317113 11.9298 0.486682 12 0.663493 12H15.3302C15.507 12 15.6765 11.9298 15.8016 11.8047C15.9266 11.6797 15.9968 11.5101 15.9968 11.3333C15.9968 11.1565 15.9266 10.987 15.8016 10.8619C15.6765 10.7369 15.507 10.6667 15.3302 10.6667Z" fill="#3D3D3D"/>
</svg>
