<svg width="16" height="12" viewBox="0 0 16 12" fill="none" xmlns="http://www.w3.org/2000/svg">
<path d="M16 6C16 6.17681 15.9298 6.34638 15.8047 6.47141C15.6797 6.59643 15.5101 6.66667 15.3333 6.66667H0.666667C0.489856 6.66667 0.320287 6.59643 0.195262 6.47141C0.070238 6.34638 0 6.17681 0 6C0 5.82319 0.070238 5.65362 0.195262 5.5286C0.320287 5.40357 0.489856 5.33333 0.666667 5.33333H15.3333C15.5101 5.33333 15.6797 5.40357 15.8047 5.5286C15.9298 5.65362 16 5.82319 16 6ZM0.666667 1.33333H15.3333C15.5101 1.33333 15.6797 1.2631 15.8047 1.13807C15.9298 1.01305 16 0.843478 16 0.666667C16 0.489856 15.9298 0.320287 15.8047 0.195262C15.6797 0.070238 15.5101 0 15.3333 0H0.666667C0.489856 0 0.320287 0.070238 0.195262 0.195262C0.070238 0.320287 0 0.489856 0 0.666667C0 0.843478 0.070238 1.01305 0.195262 1.13807C0.320287 1.2631 0.489856 1.33333 0.666667 1.33333ZM15.3333 10.6667H0.666667C0.489856 10.6667 0.320287 10.7369 0.195262 10.8619C0.070238 10.987 0 11.1565 0 11.3333C0 11.5101 0.070238 11.6797 0.195262 11.8047C0.320287 11.9298 0.489856 12 0.666667 12H15.3333C15.5101 12 15.6797 11.9298 15.8047 11.8047C15.9298 11.6797 16 11.5101 16 11.3333C16 11.1565 15.9298 10.987 15.8047 10.8619C15.6797 10.7369 15.5101 10.6667 15.3333 10.6667Z" fill="#A3A3A3"/>
</svg>
