<svg width="24" height="14" viewBox="0 0 24 14" fill="none" xmlns="http://www.w3.org/2000/svg">
<g filter="url(#filter0_d_105_1126)">
<path d="M19.9968 6C19.9968 6.17681 19.9266 6.34638 19.8016 6.47141C19.6765 6.59643 19.507 6.66667 19.3302 6.66667H4.66349C4.48668 6.66667 4.31711 6.59643 4.19209 6.47141C4.06706 6.34638 3.99683 6.17681 3.99683 6C3.99683 5.82319 4.06706 5.65362 4.19209 5.5286C4.31711 5.40357 4.48668 5.33333 4.66349 5.33333H19.3302C19.507 5.33333 19.6765 5.40357 19.8016 5.5286C19.9266 5.65362 19.9968 5.82319 19.9968 6ZM4.66349 1.33333H19.3302C19.507 1.33333 19.6765 1.2631 19.8016 1.13807C19.9266 1.01305 19.9968 0.843478 19.9968 0.666667C19.9968 0.489856 19.9266 0.320287 19.8016 0.195262C19.6765 0.070238 19.507 0 19.3302 0H4.66349C4.48668 0 4.31711 0.070238 4.19209 0.195262C4.06706 0.320287 3.99683 0.489856 3.99683 0.666667C3.99683 0.843478 4.06706 1.01305 4.19209 1.13807C4.31711 1.2631 4.48668 1.33333 4.66349 1.33333ZM19.3302 10.6667H4.66349C4.48668 10.6667 4.31711 10.7369 4.19209 10.8619C4.06706 10.987 3.99683 11.1565 3.99683 11.3333C3.99683 11.5101 4.06706 11.6797 4.19209 11.8047C4.31711 11.9298 4.48668 12 4.66349 12H19.3302C19.507 12 19.6765 11.9298 19.8016 11.8047C19.9266 11.6797 19.9968 11.5101 19.9968 11.3333C19.9968 11.1565 19.9266 10.987 19.8016 10.8619C19.6765 10.7369 19.507 10.6667 19.3302 10.6667Z" fill="#3D3D3D"/>
</g>
<defs>
<filter id="filter0_d_105_1126" x="-0.00317383" y="0" width="24" height="20" filterUnits="userSpaceOnUse" color-interpolation-filters="sRGB">
<feFlood flood-opacity="0" result="BackgroundImageFix"/>
<feColorMatrix in="SourceAlpha" type="matrix" values="0 0 0 0 0 0 0 0 0 0 0 0 0 0 0 0 0 0 127 0" result="hardAlpha"/>
<feOffset dy="4"/>
<feGaussianBlur stdDeviation="2"/>
<feComposite in2="hardAlpha" operator="out"/>
<feColorMatrix type="matrix" values="0 0 0 0 0 0 0 0 0 0 0 0 0 0 0 0 0 0 0.25 0"/>
<feBlend mode="normal" in2="BackgroundImageFix" result="effect1_dropShadow_105_1126"/>
<feBlend mode="normal" in="SourceGraphic" in2="effect1_dropShadow_105_1126" result="shape"/>
</filter>
</defs>
</svg>
