<svg width="14" height="14" viewBox="0 0 14 14" fill="none" xmlns="http://www.w3.org/2000/svg">
<path d="M13.9722 8.93175C13.5286 10.3798 12.6396 11.6511 11.4317 12.5646C10.3712 13.3628 9.10925 13.8496 7.78746 13.9704C6.46568 14.0912 5.13638 13.8412 3.94879 13.2484C2.76119 12.6557 1.7623 11.7437 1.06423 10.6148C0.366156 9.48591 -0.00346167 8.18479 -0.00314022 6.85749C-0.00791243 5.30826 0.495725 3.80024 1.43051 2.56479C2.34407 1.3569 3.61533 0.467906 5.06338 0.0243232C5.15881 -0.00506363 5.26046 -0.00787764 5.35737 0.0161838C5.45429 0.0402453 5.54282 0.0902719 5.61343 0.160883C5.68404 0.231495 5.73407 0.32002 5.75813 0.416937C5.78219 0.513855 5.77938 0.615498 5.74999 0.710936C5.43335 1.75831 5.4068 2.87198 5.67317 3.93325C5.93954 4.99453 6.48885 5.96366 7.26256 6.73737C8.03627 7.51109 9.0054 8.06039 10.0667 8.32676C11.128 8.59313 12.2416 8.56658 13.289 8.24994C13.3844 8.22056 13.4861 8.21774 13.583 8.24181C13.6799 8.26587 13.7684 8.31589 13.839 8.3865C13.9097 8.45712 13.9597 8.54564 13.9837 8.64256C14.0078 8.73948 14.005 8.84112 13.9756 8.93656L13.9722 8.93175Z" fill="#3D3D3D"/>
</svg>
